<?xml version="1.0" standalone="no"?>
<!DOCTYPE svg PUBLIC "-//W3C//DTD SVG 20010904//EN"
 "http://www.w3.org/TR/2001/REC-SVG-20010904/DTD/svg10.dtd">
<svg version="1.0" xmlns="http://www.w3.org/2000/svg"
 width="512.000000pt" height="512.000000pt" viewBox="0 0 512.000000 512.000000"
 preserveAspectRatio="xMidYMid meet">
<metadata>
Created by potrace 1.14, written by Peter Selinger 2001-2017
</metadata>
<g transform="translate(0.000000,512.000000) scale(0.100000,-0.100000)"
fill="#000000" stroke="none">
<path d="M2470 4988 c0 -5 -29 -8 -65 -8 -36 0 -65 -4 -65 -9 0 -5 -14 -7 -30
-6 -17 1 -33 -1 -36 -6 -3 -5 -16 -9 -29 -9 -13 0 -27 -5 -30 -11 -4 -6 -13
-8 -21 -5 -7 3 -16 1 -19 -4 -4 -6 -15 -10 -26 -10 -10 0 -19 -3 -19 -8 0 -4
-27 -18 -60 -30 -33 -13 -60 -28 -60 -33 0 -5 -3 -8 -7 -7 -9 1 -43 -12 -58
-24 -5 -4 -26 -21 -46 -38 -20 -16 -40 -30 -44 -30 -4 0 -38 -31 -76 -69 -38
-37 -71 -66 -74 -63 -3 3 -5 -2 -5 -11 0 -10 -5 -17 -11 -17 -5 0 -8 -4 -4 -9
3 -5 -6 -18 -20 -29 -13 -11 -22 -21 -20 -24 3 -3 -4 -13 -15 -23 -11 -10 -20
-24 -20 -31 0 -7 -8 -18 -17 -23 -10 -6 -15 -11 -10 -11 4 0 0 -11 -9 -25 -9
-14 -14 -25 -10 -25 3 0 -1 -8 -9 -17 -8 -10 -14 -21 -13 -24 2 -3 -3 -13 -11
-22 -7 -9 -11 -24 -7 -32 3 -9 0 -15 -10 -15 -8 0 -12 -5 -9 -10 4 -6 1 -17
-5 -25 -6 -8 -9 -18 -6 -24 4 -5 0 -15 -7 -23 -7 -7 -12 -22 -12 -33 0 -11 -4
-25 -8 -32 -5 -7 -6 -17 -3 -22 4 -5 2 -12 -3 -16 -6 -3 -8 -12 -5 -20 3 -8 2
-20 -2 -27 -5 -7 -9 -39 -9 -70 0 -46 -5 -61 -24 -82 -14 -14 -31 -26 -38 -26
-8 0 -12 -4 -8 -9 3 -5 -4 -12 -15 -16 -11 -3 -20 -11 -20 -16 0 -5 -13 -23
-30 -41 -16 -17 -30 -36 -30 -41 0 -6 -3 -8 -6 -4 -7 6 -44 -29 -44 -42 0 -4
-12 -21 -27 -38 -33 -35 -51 -62 -59 -85 -4 -10 -11 -18 -16 -18 -5 0 -14 -13
-19 -30 -6 -16 -15 -30 -19 -30 -4 0 -16 -20 -27 -45 -10 -25 -21 -45 -25 -45
-4 0 -10 -16 -14 -35 -3 -19 -10 -33 -14 -30 -4 3 -11 -7 -16 -23 -4 -15 -8
-29 -10 -32 -1 -3 -5 -15 -9 -27 -4 -13 -11 -23 -16 -23 -4 0 -6 -9 -4 -20 2
-11 1 -20 -3 -20 -4 0 -8 -10 -9 -22 -1 -11 -6 -24 -11 -27 -5 -3 -8 -16 -7
-28 1 -13 -2 -23 -7 -23 -4 0 -8 -11 -8 -24 0 -14 -4 -27 -9 -30 -4 -3 -7 -17
-6 -31 2 -14 0 -25 -5 -25 -4 0 -9 -16 -9 -35 -2 -56 -4 -65 -11 -65 -4 0 -6
-25 -5 -55 2 -30 -1 -55 -7 -55 -17 0 2 -395 22 -450 1 -3 1 -16 0 -29 -1 -13
2 -21 7 -18 5 3 9 -8 9 -26 -1 -18 4 -38 11 -45 7 -7 10 -19 6 -27 -3 -9 0
-22 7 -30 6 -8 9 -18 6 -23 -3 -6 1 -15 9 -22 7 -6 11 -18 8 -26 -3 -8 0 -14
5 -14 6 0 9 -9 7 -20 -2 -11 0 -20 6 -20 5 0 9 -9 9 -20 0 -11 5 -20 11 -20 6
0 9 -6 6 -14 -3 -8 1 -20 9 -27 8 -6 12 -14 10 -16 -6 -6 60 -132 81 -155 9
-10 12 -18 7 -18 -5 -1 1 -9 13 -19 12 -10 19 -21 16 -25 -4 -3 -1 -6 5 -6 7
0 12 -7 12 -14 0 -8 11 -27 25 -42 14 -15 23 -29 21 -31 -2 -2 12 -20 32 -39
19 -19 31 -34 27 -34 -4 0 46 -52 111 -115 139 -133 168 -160 177 -160 3 0 17
-9 29 -20 27 -24 57 -42 81 -51 9 -3 17 -10 17 -14 0 -4 8 -10 18 -14 9 -3 36
-17 60 -30 23 -13 42 -21 42 -18 0 4 4 3 8 -3 4 -5 16 -15 27 -21 11 -7 19
-20 17 -30 -2 -11 -4 -33 -5 -51 -2 -18 -6 -35 -10 -39 -4 -4 -7 -24 -7 -45 0
-21 -4 -40 -10 -44 -5 -3 -7 -21 -5 -40 3 -20 0 -35 -5 -35 -6 0 -10 -18 -10
-40 0 -22 -4 -40 -8 -40 -5 0 -8 -17 -7 -37 1 -21 -2 -42 -5 -48 -7 -9 -15
-47 -25 -120 -2 -16 -8 -47 -13 -67 -5 -20 -7 -39 -5 -42 3 -2 1 -11 -3 -18
-5 -7 -9 -24 -9 -38 0 -14 -3 -30 -7 -36 -4 -6 -8 -28 -10 -48 -1 -21 -5 -39
-9 -41 -3 -2 -5 -22 -5 -44 1 -23 -4 -43 -10 -45 -7 -3 -10 -13 -7 -24 3 -15
12 -18 44 -16 53 3 65 15 64 63 0 23 3 41 8 41 5 0 7 12 6 28 -2 15 2 37 9 48
6 12 9 32 7 44 -3 13 -1 28 4 34 8 10 15 49 25 131 3 17 8 44 13 60 5 17 8 40
7 53 -1 12 2 22 5 22 4 0 8 12 9 28 4 64 15 122 21 122 4 0 7 15 6 32 -1 18 2
40 7 49 8 18 18 74 22 128 2 36 29 59 49 43 7 -5 26 -13 42 -17 17 -5 35 -9
40 -11 6 -2 20 -5 32 -8 12 -2 30 -9 40 -14 10 -5 26 -8 35 -7 10 2 20 -1 24
-6 3 -5 20 -9 39 -9 19 0 36 -4 39 -8 3 -5 22 -8 43 -7 21 1 43 -1 48 -5 12
-9 10 -9 225 -9 205 1 200 0 200 9 0 4 18 6 40 5 23 -1 43 2 46 7 3 4 23 8 45
8 21 0 39 4 39 9 0 5 14 7 30 6 17 -1 30 2 30 9 0 6 12 12 28 12 38 2 116 25
124 38 12 19 35 -12 33 -46 -1 -18 1 -37 4 -43 3 -5 7 -21 7 -35 1 -14 6 -36
11 -50 6 -14 9 -34 7 -44 -2 -11 0 -24 5 -30 5 -6 9 -25 9 -43 0 -17 5 -40 10
-50 5 -10 8 -30 7 -45 -1 -16 2 -28 7 -28 5 0 8 -6 6 -13 -1 -6 2 -34 7 -62 4
-27 7 -57 6 -67 -1 -9 3 -19 9 -23 5 -3 10 -24 10 -46 0 -21 3 -39 8 -39 4 0
8 -17 9 -38 3 -50 12 -107 22 -134 4 -13 7 -35 6 -50 -2 -36 20 -44 100 -39
13 1 14 5 3 24 -6 12 -12 36 -13 52 -1 17 -5 38 -9 48 -5 9 -6 26 -3 37 3 11
1 23 -4 26 -5 3 -7 10 -4 15 4 5 2 9 -3 9 -5 0 -9 17 -7 37 1 21 -4 43 -11 51
-10 9 -11 19 -5 30 6 11 5 23 -3 34 -7 10 -12 33 -11 53 2 19 -1 35 -6 35 -5
0 -9 15 -10 33 0 40 -23 150 -29 143 -3 -2 -6 12 -6 32 -3 63 -11 122 -18 129
-3 3 -6 24 -6 45 0 21 -4 38 -8 38 -5 0 -8 17 -9 38 0 20 -4 45 -8 55 -5 13
-4 16 9 11 9 -3 16 -1 16 5 0 6 7 11 15 11 8 0 15 4 15 10 0 5 7 7 15 4 8 -4
15 -2 15 4 0 6 14 13 30 17 17 4 30 11 30 15 0 5 17 17 38 26 20 10 41 24 45
31 4 7 14 13 21 13 7 0 21 9 31 20 10 11 23 20 30 20 6 0 22 13 35 29 14 16
31 26 39 23 8 -3 12 -1 9 4 -3 5 8 20 26 33 18 14 43 39 57 57 13 18 26 31 28
29 5 -5 51 46 51 57 0 5 4 7 9 3 5 -3 12 4 16 15 4 11 10 18 15 15 4 -2 13 9
20 26 7 16 21 34 31 40 11 5 19 14 19 20 0 5 12 26 28 45 15 18 26 36 25 39
-2 3 6 14 17 25 12 12 18 25 15 30 -4 6 -1 10 5 10 6 0 16 12 23 28 6 15 14
29 18 32 11 9 69 140 69 155 0 8 4 15 10 15 5 0 6 7 3 17 -5 12 -3 14 7 8 10
-6 12 -2 8 18 -3 15 -1 24 3 21 8 -5 13 10 10 30 -1 4 2 13 7 20 5 6 13 25 17
41 5 17 9 35 11 40 2 6 6 24 9 40 3 17 9 39 12 50 7 23 12 59 18 130 2 28 5
51 6 53 1 1 2 5 3 10 1 4 4 12 7 17 12 21 -4 369 -18 405 -4 8 -7 26 -9 40 -2
21 -12 70 -27 137 -2 7 -6 16 -10 19 -4 4 -7 18 -7 30 0 13 -5 26 -11 30 -6 3
-9 15 -6 25 3 10 1 19 -5 21 -5 2 -10 11 -12 20 -1 10 -5 21 -9 24 -4 4 -7 16
-7 26 0 10 -5 18 -11 18 -5 0 -7 5 -3 11 3 6 3 14 -2 18 -11 8 -69 122 -69
136 0 6 -6 14 -12 18 -7 4 -13 14 -13 21 0 8 -7 17 -16 20 -9 4 -14 9 -10 13
3 4 -4 17 -16 30 -12 13 -18 23 -14 23 4 0 -2 10 -14 22 -11 12 -20 28 -20 35
0 7 -6 13 -13 13 -8 0 -19 11 -25 24 -15 34 -100 126 -211 229 -28 26 -51 53
-52 60 0 6 -2 26 -2 42 -1 17 -5 35 -8 40 -3 6 -5 25 -4 43 0 17 -3 32 -7 32
-4 0 -8 13 -8 29 0 17 -5 33 -11 36 -6 4 -8 13 -5 21 3 7 0 16 -5 20 -6 3 -9
14 -6 24 3 11 -1 21 -9 24 -8 3 -13 9 -13 13 4 19 -49 134 -70 151 -12 10 -12
12 -1 7 10 -4 9 -2 -2 8 -10 8 -18 17 -18 21 0 7 -39 66 -50 76 -3 3 -16 20
-29 37 -30 44 -142 152 -163 159 -10 3 -18 9 -18 14 0 5 -18 19 -40 31 -22 13
-40 27 -40 33 0 5 -3 7 -6 3 -3 -3 -15 3 -26 13 -11 10 -26 16 -34 13 -8 -3
-14 0 -14 6 0 6 -7 11 -15 11 -8 0 -15 4 -15 9 0 10 -38 24 -57 22 -7 -1 -13
2 -13 7 0 6 -7 13 -16 16 -10 4 -13 2 -8 -7 4 -6 -1 -5 -12 4 -10 9 -24 14
-31 12 -6 -2 -14 1 -18 6 -3 6 -17 11 -31 11 -13 0 -24 4 -24 9 0 5 -14 7 -30
6 -17 -1 -33 1 -36 6 -3 5 -34 9 -70 9 -36 0 -63 4 -60 8 2 4 -29 8 -70 8 -41
0 -74 -4 -74 -8z"/>
</g>
</svg>
